<?xml version="1.0" encoding="UTF-8"?>
<svg id="Layer_1" data-name="Layer 1" xmlns="http://www.w3.org/2000/svg" xmlns:xlink="http://www.w3.org/1999/xlink" viewBox="0 0 180 155.98">
  <defs>
    <style>
      .cls-1 {
        fill: url(#linear-gradient-3);
      }

      .cls-2 {
        fill: url(#linear-gradient-2);
      }

      .cls-3 {
        fill: url(#linear-gradient);
      }
    </style>
    <linearGradient id="linear-gradient" x1="2.07" y1="39.61" x2="194.04" y2="121.35" gradientUnits="userSpaceOnUse">
      <stop offset="0" stop-color="#2980b9"/>
      <stop offset="1" stop-color="#566573"/>
    </linearGradient>
    <linearGradient id="linear-gradient-2" x1="6.27" y1="29.76" x2="198.23" y2="111.5" xlink:href="#linear-gradient"/>
    <linearGradient id="linear-gradient-3" x1="-15.87" y1="81.76" x2="176.09" y2="163.5" xlink:href="#linear-gradient"/>
  </defs>
  <path class="cls-3" d="M97.03,113.23c-.43,9.87,1.88,19.86-4.22,28.43-9.94,13.96-31.18,12.35-39.59-2.28-16.55,5.02-38.74-4.91-39.14-23.92C1.34,108.08-3.85,91.34,3.1,78.08c-8.11-17.05.56-37.66,18.79-42.92.25-16.68,16.04-29.94,32.46-28.15,13.92-12.66,40.56-8.01,42.69,12.72,0,0,0,19.59,0,19.59,1.64-.12,15.37.44,16.47-.62,4.28-1.54,7.59-8.54,10.91-11.62.35-.77-.72-2.04-1-2.89-3.86-12.06,12.57-19.04,18.69-8.96,5.38,8.86-2.97,18.56-12.55,15.61-13.76,16.91-11.03,14.61-32.52,14.59v10.84h40.15c6.75-1.33,10.49-8.7,15.57-12.79-4.84-18.65,24.81-18.57,19.52.08-2.29,6.23-9.81,8-15.22,4.5-4.93,4.21-9.43,11.34-15.76,13.42-.33,1.67-42.58.64-44.25.9v10.84h36.26c4.22,0,6.98,5.09,9.95,6.44,6.34,2.73,8.07-6.95,16.59-6.29,4.76-12.72,23.29-6.75,19.7,6.64-1.44,5.36-8.08,8.24-13.2,6.56-3.4-1.11-5.02-3.73-6.7-6.64-6.22-1.12-7.04,10.36-19.56,5.11-2.71-1.36-5.54-5.71-8.46-5.71h-34.59v10.84h26.26c1.14,0,4.44,1.85,5.42,2.64l17.79,17.52c.63.28,3.03-1.3,4.09-1.47,11.12-1.87,16.63,12.08,8.38,18.39-8.16,6.25-19.29-1.71-16.11-11.39-4.83-5.3-10.22-10.66-15.39-15.69-1.09-.99-4.25-3.88-5.56-3.88h-24.87v10.84h15.14c.31,0,2.83.92,3.3,1.15,2.82,1.33,12.81,11.45,15.18,14.27,3.25,3.84,4.19,8.2,3.36,13.17,9.9,2.33,10.61,16.36.88,19.7-13.26,3.96-19.09-13.48-7.55-19.78,1.3-3.05-.08-7.17-2.11-9.62-13.03-13.69-9.66-13.03-28.21-12.78ZM56.47,126.84c-.11,22.93,33.17,25.11,34.47.71,0,0-.02-105.59-.02-105.59-1.85-25.06-42.8-17.55-36.25,5.13,2.83,10.15,11.4,7.73,10.02,13.08-1.06,4.41-6.76,1.07-8.9-.58-7.89-6.08-10.39-17.44-5.98-26.39-23.68.63-31.08,39.35-4.61,40.81,2.33-.25,2.51-1,4.08-2.04,11.06-4.33,3.54,17.85-18.21,3.45-4.95-3.95-6.33-7.57-8.45-13.22-.12-.31.16-.46-.43-.39-12.22,4.02-18.62,18.53-14.59,30.56,2.44-2.68,12.61-9.58,14.43-3.73.61,3.87-3.63,3.9-6.28,5.35-12.96,7.1-12.12,27.01-.23,34.77,4.84-8.8,8.34-4.44,8.6-17.23,1.68-8.43,10.37-16.12,18.94-16.9,6.21-.57,5.91,5.5,2.13,6.29s-5.92.62-9.38,3.4c-8.19,6.58-3.61,14.07-8.89,20.56-15.65,11.58-.12,28.95,14.99,29.46,1.3.08,8.68-.12,9.02-1.3-.56-2.88-.73-5.59-.18-8.5,2.16-13.89,12.15,7.2,23.59-9.48,1.29-2.54.83-6.44,4.78-6,8.89,1.86-5.57,25.23-22.61,17.76ZM130.2,18.02c-4.01,4.36,2.81,9.78,6.3,5.88,3.83-4.29-2.62-9.88-6.3-5.88ZM161.42,35.49c-3.97.83-4.2,8.06,1.04,8.29,6.28.27,5.6-9.67-1.04-8.29ZM168.64,72.72c-4.99,1.05-3.89,9.14,1.82,8.2s4.13-9.46-1.82-8.2ZM152.26,114.67c-1.49.21-3.45,1.68-3.76,3.2-1.38,6.67,9.11,7.33,8.28.21-.21-1.84-2.67-3.67-4.52-3.41ZM130.58,141.35c-6.55,1.19-2.55,11.62,3.11,7.83,4.01-2.68,1.33-8.64-3.11-7.83Z"/>
  <path class="cls-2" d="M71.4,21.87c4.24-.81,9.14,6.88,9.95,10.49.95,4.27.78,16.87.41,21.56-.3,3.79-2.24,7.24-5.48,9.25-1.52.94-3.3,1.33-4.82,2.12-6.85,3.57-9.24,12.6-4.39,18.86,1.01,1.3,3.3,2.45,3.55,3.95.7,4.27-3.13,4.84-6.1,2.49-9.79-7.76-7.42-23.36,2.58-29.94,3.23-2.12,7.35-2.06,8.14-6.59.59-3.4.53-16.01.05-19.53-.33-2.44-1.48-4.29-3.26-5.91-.67-.61-1.69-.97-2.23-1.66-1.43-1.8-.72-4.64,1.6-5.09Z"/>
  <path class="cls-1" d="M50.3,97.47c4.06-.41,7.76.45,11.26,2.47,2.46,1.42,6.37,3.94,4.21,7.16-2.36,3.52-5.35-.46-7.43-1.71-6.87-4.1-15.91-.49-18.38,7.01-.84,2.57-.08,6.78-4.44,6.09s-1.91-7.71-.77-10.18c2.66-5.74,9.29-10.2,15.56-10.84Z"/>
</svg>